<?xml version="1.0" encoding="UTF-8" standalone="no"?>
<!-- Created with Inkscape (http://www.inkscape.org/) -->

<svg
   xmlns:dc="http://purl.org/dc/elements/1.1/"
   xmlns:cc="http://creativecommons.org/ns#"
   xmlns:rdf="http://www.w3.org/1999/02/22-rdf-syntax-ns#"
   xmlns:svg="http://www.w3.org/2000/svg"
   xmlns="http://www.w3.org/2000/svg"
   xmlns:sodipodi="http://sodipodi.sourceforge.net/DTD/sodipodi-0.dtd"
   xmlns:inkscape="http://www.inkscape.org/namespaces/inkscape"
   width="4771.4106"
   height="1728"
   id="svg2"
   version="1.1"
   inkscape:version="0.48.4 r9939"
   sodipodi:docname="Plus logo.svg">
  <defs
     id="defs4" />
  <sodipodi:namedview
     id="base"
     pagecolor="#ffffff"
     bordercolor="#666666"
     borderopacity="1.0"
     inkscape:pageopacity="0.0"
     inkscape:pageshadow="2"
     inkscape:zoom="0.12374369"
     inkscape:cx="2861.5162"
     inkscape:cy="1485.9006"
     inkscape:document-units="px"
     inkscape:current-layer="layer1"
     showgrid="false"
     fit-margin-top="0"
     fit-margin-left="0"
     fit-margin-right="0"
     fit-margin-bottom="0"
     inkscape:window-width="1366"
     inkscape:window-height="706"
     inkscape:window-x="-8"
     inkscape:window-y="-8"
     inkscape:window-maximized="1" />
  <metadata
     id="metadata7">
    <rdf:RDF>
      <cc:Work
         rdf:about="">
        <dc:format>image/svg+xml</dc:format>
        <dc:type
           rdf:resource="http://purl.org/dc/dcmitype/StillImage" />
        <dc:title></dc:title>
      </cc:Work>
    </rdf:RDF>
  </metadata>
  <g
     inkscape:label="Layer 1"
     inkscape:groupmode="layer"
     id="layer1"
     transform="translate(1422.5731,20.70925)">
    <g
       id="g2989" />
    <path
       inkscape:connector-curvature="0"
       id="path3015"
       d="m 2645.2352,932.41665 c -3.3549,-21.02698 -2.6847,-134.27544 1.1427,-193.10069 2.6841,-41.25369 6.8178,-81.90815 11.8991,-117.02521 1.3131,-9.075 2.0574,-16.85084 1.6541,-17.27963 -0.4033,-0.4288 -3.3487,0.79531 -6.5454,2.72025 -12.6941,7.644 -20.0355,8.08464 -51.2942,3.07877 -87.0959,-13.9478 -148.976,-15.97261 -198.7344,-6.5029 -6.05,1.1514 -19.775,4.29082 -30.5,6.9765 -31.1864,7.80948 -35.5921,8.43154 -60,8.47166 -20.3566,0.0335 -21.7659,-0.0869 -26.5,-2.264 -13.129,-6.03765 -20.1847,-18.84679 -22.5869,-41.00525 -4.2439,-39.14573 11.6106,-99.68115 34.4447,-131.5165 6.4284,-8.9626 19.817,-21.54832 29.9207,-28.12658 32.0827,-20.88825 72.8668,-29.91019 133.0987,-29.44303 55.655,6.17204 199.2138,17.43622 224.994,63.31585 1.4967,3.31086 3.0384,5.51695 3.4942,5 0.4486,-0.50883 3.4078,-11.27514 6.576,-23.92514 7.4655,-29.80895 16.4225,-62.20114 28.2048,-102 13.3404,-45.06161 16.881,-55.39838 23.5201,-68.66602 23.3471,-46.65735 66.3924,-70.36964 133.3337,-73.44924 51.9143,-2.38829 83.4648,15.4897 91.089,51.61526 1.8398,8.71761 2.0403,30.29783 0.3782,40.71166 -3.6815,23.06604 -8.1641,36.03853 -30.6573,88.72159 -21.4964,50.30331 -42.0952,100.9396 -61.5125,152.06675 -51.1419,134.66752 -83.978,256.03199 -101.763,376.12331 -2.5521,17.23285 -5.0021,26.34335 -9.5694,35.58503 -24.7165,50.36526 -114.4685,55.89318 -124.0869,-0.0824 z m 596.1219,-152.47829 c -3.3,-1.23649 -10.275,-4.74769 -15.5,-7.80265 -22.3341,-13.05836 -59.5515,-32.39383 -82,-42.60124 -58.9386,-26.79965 -100.0925,-37.84609 -148,-39.72593 -34.6498,-1.35962 -50.7261,-3.65372 -67.7766,-9.6718 -21.5224,-7.59646 -30.967,-14.43738 -35.322,-25.58445 -3.3545,-8.58622 -3.769,-25.35359 -0.9647,-39.02119 8.4508,-41.18695 45.4688,-97.29765 78.2752,-118.64723 19.7717,-12.86691 38.4817,-18.33695 65.9755,-19.28852 43.62,-1.5097 77.1626,7.40842 164.3126,43.68649 44.8539,18.67141 61.6719,27.59152 82.5922,43.80622 11.9105,9.23142 18.3075,13.69616 38.0698,26.57023 4.7641,3.10355 10.6363,7.83876 13.0494,10.52268 18.5893,20.67582 19.6258,52.73762 3.1358,97.00109 -15.4425,41.45179 -39.9044,71.79393 -65.0282,80.66008 -9.3118,3.28614 -22.1983,3.32638 -30.819,0.0962 z"
       style="fill:#61afd8"
       sodipodi:nodetypes="csssssssssssscccssssssccsccccsssssssssssssccc" />
    <path
       inkscape:connector-curvature="0"
       id="path3011"
       d="m -1421.5159,456.58443 c 49.3591,-19.39696 95.2841,-34.85235 148.5429,-45.74119 69.2782,-13.95105 147.0917,-19.92265 207.8301,-21.4513 103.96222,-2.57014 179.97102,7.13055 254.00002,32.41702 35.8453,12.24384 61.7763,24.13453 90.61691,41.5524 49.28084,29.76246 91.50187,69.37178 122.50748,114.92939 43.88052,64.47515 68.37718,139.66803 76.39642,234.5 1.94042,22.94665 1.92482,77.23332 -0.0295,102.5 -9.08989,117.52185 -47.32793,215.52025 -113.15539,290.00005 -27.79755,31.4513 -59.19391,57.5024 -95.82592,79.5115 -46.64584,27.4437 -104.77814,46.1347 -153.1145,54.9611 -30.5945,5.2763 -51.5361,6.8475 -92.3955,6.9322 -37.99572,0.079 -52.06412,-0.6447 -86.50002,-4.448 -28.2517,-3.7172 -39.5781,-5.5428 -61.1393,-9.5417 l -0.8607,374.5849 c -99.1667,0 -198.3333,0 -297.5,0 z m 481.08612,713.16977 c 29.933,-14.1197 54.172,-35.2364 73.4212,-63.9634 28.2642,-42.1808 44.9208,-96.8439 51.3443,-168.50005 7.2872,-81.29129 1.0384,-179.17165 -15.0914,-236.38878 -24.40683,-87.32817 -82.40198,-144.26236 -169.88722,-154.5963 -11.9012,-1.32039 -50.3295,-1.29022 -64.0763,0.0503 -23.6687,2.30803 -56.4093,9.83915 -59.1737,13.61135 l -1.25,617.27738 2.5847,1.6936 c 52.0572,20.9978 134.82444,12.7226 182.12842,-9.1841 z m 1531.2869,181.533 c -103.6935,-5.4663 -179.3042,-22.9404 -239.774,-55.4133 -37.6572,-20.2223 -70.0262,-49.455 -93.6579,-84.5831 -7.1597,-10.6428 -21.1096,-38.9635 -26.3706,-53.5369 -5.9875,-16.5858 -11.6802,-39.5707 -14.7347,-59.4931 l -4.4628,-691.97005 295.9595,0 0.6032,662.50005 c 6.88141,30.4841 23.1045,61.1831 43.3096,76.8028 19.4345,14.6324 43.5958,23.2907 74.3383,26.6394 13.4072,1.4605 24.653,1.3244 38.2891,-0.4631 34.589,-4.5342 59.5763,-15.1582 78.9621,-33.5728 9.5406,-9.0627 14.9582,-16.2392 20.8054,-27.5604 7.45254,-14.7877 9.70153,-24.1146 13.1881,-38.8459 l 1.3028,-665.25005 296.24188,-0.25 -1.0506,658.50005 c -4.3677,58.4253 -19.193,106.8351 -44.7117,146 -9.9719,15.3043 -18.5417,25.7995 -32.24978,39.4952 -27.7169,27.6917 -63.8478,50.1348 -105.2854,65.3992 -18.6122,6.8561 -20.8517,7.6186 -29.9356,10.1923 -45.2243,12.813 -84.7836,19.488 -142.2628,24.0044 -23.0531,1.8114 -104.0026,2.6967 -128.5,1.4053 z m 903.49998,-2.1341 c -76.3804,-4.9969 -153.5466,-21.4425 -209.5004,-44.6488 -15.225,-6.3144 -40.9996,-19.4347 -40.9996,-20.8704 l 74,-165.3222 c 0,-2.3789 2.4827,-1.6984 8.9663,2.4575 81.7637,41.6085 267.3651,94.3022 303.2008,-31.385 2.6079,-9.8762 3.5839,-32.0839 1.8823,-42.8299 -3.9214,-24.7646 -11.6311,-39.8783 -29.512,-57.85415 -71.9981,-54.79545 -136.0644,-61.66561 -209.0374,-105.37024 -54.1216,-32.84709 -91.0114,-73.02097 -109.4251,-119.16675 -22.9788,-59.46464 -17.4627,-131.91454 1.3719,-183.26364 26.8471,-71.40718 87.6536,-130.44266 167.5532,-162.6731 60.1319,-21.32503 107.2459,-29.27195 165,-29.25144 98.5713,0.1599 177.2767,14.6142 248.8602,45.70334 10.943,4.75262 38.2801,18.46968 39.9259,20.03384 l -67.4892,146.82859 c -1.4699,3.64073 -4.3787,5.04477 -5.774,2.78709 -0.7641,-1.2363 -16.9394,-10.73984 -26.0229,-15.28928 -64.7035,-32.40664 -149.0657,-39.60131 -194.7933,-16.61256 -20.5598,10.33607 -33.3067,22.48795 -43.3059,41.28456 -12.689,23.85288 -13.451,58.46441 -1.8298,83.11589 16.8153,35.66971 49.8902,59.43944 123.6691,88.87669 63.9245,25.04107 130.4862,56.77418 179.2615,103.22372 40.2225,39.60726 60.6805,83.41696 66.0134,141.36394 4.097,44.5182 -1.7246,85.294 -17.7748,124.5 -28.1777,68.8296 -89.0814,125.7658 -169.9888,158.9151 -46.9466,19.2349 -94.5732,30.0678 -154.2127,35.0765 -19.6957,1.6541 -77.1657,1.867 -100.0387,0.3707 z m -1814.98518,-17.1123 -1.0148,-1352.75005 298,0 -0.9646,1354.75005 -295.4448,1.25 z"
       style="fill:#66b03b"
       sodipodi:nodetypes="cccssssssccsccccccssccscccccssscccccssscccccsssssccssccccsccccccscccssssccssssscccccc" />
    <path
       inkscape:connector-curvature="0"
       id="path3009"
       d="m 2675.8988,1351.1364 c -38.0272,-1.1553 -74.0589,-6.4581 -114.5417,-16.8571 -163.3971,-41.9725 -297.02,-147.3009 -365.9859,-288.4885 -16.0543,-32.8668 -21.5247,-47.70305 -23.5547,-63.88345 -6.2799,-50.05611 30.0451,-115.7429 77.5771,-140.28303 9.9243,-5.12377 28.1147,-12.3717 39.9635,-15.92332 14.7727,-3.997 31.4439,-4.6722 40.7889,5.48775 7.5172,8.32065 11.2089,18.35916 16.6508,45.2774 5.0001,24.73271 10.8001,43.79808 19.5456,64.24913 25.4334,59.47532 71.3714,114.82742 128.0147,154.24902 51.7885,36.0428 111.5492,60.6852 169.1159,69.7351 31.6575,4.9768 58.4812,5.7177 94.1188,2.5995 73.2572,-6.4097 117.0431,-14.2569 154.2653,-27.6472 33.8957,-12.1936 78.8504,-40.6152 138,-87.2473 5.775,-4.5529 17.475,-13.4989 26,-19.8801 28.2289,-21.13 39.9179,-31.0528 58.532,-49.68795 19.859,-19.88135 35.0375,-32.02119 47.5088,-37.99792 28.4225,-10.94847 36.9562,21.89627 32.0654,40.79732 -3.6143,13.1746 -6.8031,18.72325 -26.5062,46.12275 -100.0242,139.0952 -191.8422,228.0223 -281.8949,273.0194 -47.0123,23.491 -88.7772,35.8898 -144.7051,42.9592 -25.8551,3.2681 -53.2271,4.3633 -84.9583,3.3993 z"
       style="fill:#e23033"
       sodipodi:nodetypes="sssssccsssssssssccssss" />
  </g>
</svg>
